<svg xmlns="http://www.w3.org/2000/svg" xmlns:xlink="http://www.w3.org/1999/xlink" width="200" zoomAndPan="magnify" viewBox="0 0 150 149.999998" height="200" preserveAspectRatio="xMidYMid meet" version="1.0"><defs><clipPath id="2ce35730f4"><path d="M 21.953125 38.402344 L 127.703125 38.402344 L 127.703125 129.902344 L 21.953125 129.902344 Z M 21.953125 38.402344 " clip-rule="nonzero"/></clipPath><clipPath id="99772ed2e5"><path d="M 0 13.734375 L 70.5 13.734375 L 70.5 75.234375 L 0 75.234375 Z M 0 13.734375 " clip-rule="nonzero"/></clipPath><clipPath id="14139e8bd1"><path d="M 79.171875 13.734375 L 149.671875 13.734375 L 149.671875 75.234375 L 79.171875 75.234375 Z M 79.171875 13.734375 " clip-rule="nonzero"/></clipPath></defs><g clip-path="url(#2ce35730f4)"><path fill="#000000" d="M 30.992188 107.800781 L 67.261719 107.800781 C 66.855469 110.789062 66.015625 113.652344 64.738281 116.382812 C 63.933594 116.605469 63.1875 116.949219 62.496094 117.417969 C 61.804688 117.882812 61.207031 118.445312 60.703125 119.109375 C 60.195312 119.773438 59.808594 120.496094 59.542969 121.285156 C 59.273438 122.074219 59.140625 122.886719 59.136719 123.722656 L 59.136719 127.023438 C 59.136719 127.386719 59.207031 127.734375 59.34375 128.070312 C 59.484375 128.402344 59.679688 128.699219 59.9375 128.953125 C 60.191406 129.210938 60.488281 129.40625 60.820312 129.546875 C 61.15625 129.683594 61.503906 129.753906 61.867188 129.753906 L 87.792969 129.753906 C 88.152344 129.753906 88.5 129.683594 88.835938 129.546875 C 89.171875 129.40625 89.464844 129.210938 89.722656 128.953125 C 89.976562 128.699219 90.175781 128.402344 90.3125 128.070312 C 90.453125 127.734375 90.519531 127.386719 90.519531 127.023438 L 90.519531 123.722656 C 90.519531 122.886719 90.382812 122.074219 90.117188 121.285156 C 89.847656 120.496094 89.460938 119.773438 88.953125 119.109375 C 88.449219 118.445312 87.851562 117.882812 87.160156 117.417969 C 86.46875 116.949219 85.722656 116.605469 84.917969 116.382812 C 83.640625 113.652344 82.800781 110.789062 82.394531 107.800781 L 118.664062 107.800781 C 119.257812 107.800781 119.84375 107.742188 120.425781 107.625 C 121.007812 107.507812 121.574219 107.335938 122.121094 107.109375 C 122.671875 106.882812 123.191406 106.601562 123.683594 106.273438 C 124.175781 105.945312 124.632812 105.570312 125.054688 105.148438 C 125.472656 104.730469 125.847656 104.273438 126.179688 103.78125 C 126.507812 103.285156 126.785156 102.765625 127.011719 102.214844 C 127.242188 101.667969 127.414062 101.101562 127.527344 100.519531 C 127.644531 99.9375 127.703125 99.351562 127.703125 98.757812 L 127.703125 47.574219 C 127.703125 46.980469 127.644531 46.394531 127.527344 45.8125 C 127.414062 45.230469 127.242188 44.664062 127.011719 44.113281 C 126.785156 43.566406 126.507812 43.046875 126.179688 42.550781 C 125.847656 42.058594 125.472656 41.601562 125.054688 41.183594 C 124.632812 40.761719 124.175781 40.386719 123.683594 40.058594 C 123.191406 39.726562 122.671875 39.449219 122.121094 39.222656 C 121.574219 38.996094 121.007812 38.824219 120.425781 38.707031 C 119.84375 38.589844 119.257812 38.53125 118.664062 38.53125 L 30.992188 38.53125 C 30.398438 38.53125 29.8125 38.589844 29.230469 38.707031 C 28.648438 38.824219 28.082031 38.996094 27.535156 39.222656 C 26.988281 39.449219 26.464844 39.726562 25.972656 40.058594 C 25.480469 40.386719 25.023438 40.761719 24.601562 41.183594 C 24.183594 41.601562 23.808594 42.058594 23.480469 42.550781 C 23.148438 43.046875 22.871094 43.566406 22.644531 44.113281 C 22.417969 44.664062 22.246094 45.230469 22.128906 45.8125 C 22.011719 46.394531 21.953125 46.980469 21.953125 47.574219 L 21.953125 98.757812 C 21.953125 99.351562 22.011719 99.9375 22.128906 100.519531 C 22.246094 101.101562 22.417969 101.667969 22.644531 102.214844 C 22.871094 102.765625 23.148438 103.285156 23.480469 103.78125 C 23.808594 104.273438 24.183594 104.730469 24.601562 105.148438 C 25.023438 105.570312 25.480469 105.945312 25.972656 106.273438 C 26.464844 106.601562 26.988281 106.882812 27.535156 107.109375 C 28.082031 107.335938 28.648438 107.507812 29.230469 107.625 C 29.8125 107.742188 30.398438 107.800781 30.992188 107.800781 Z M 85.0625 124.292969 L 64.59375 124.292969 L 64.59375 123.722656 C 64.59375 123.433594 64.648438 123.160156 64.757812 122.894531 C 64.867188 122.632812 65.023438 122.398438 65.226562 122.195312 C 65.429688 121.992188 65.660156 121.839844 65.925781 121.730469 C 66.191406 121.621094 66.464844 121.5625 66.75 121.5625 L 82.90625 121.5625 C 83.191406 121.5625 83.46875 121.621094 83.730469 121.730469 C 83.996094 121.839844 84.230469 121.992188 84.429688 122.195312 C 84.632812 122.398438 84.789062 122.632812 84.898438 122.894531 C 85.007812 123.160156 85.0625 123.433594 85.0625 123.722656 Z M 78.921875 116.105469 L 70.753906 116.105469 C 71.800781 113.429688 72.464844 110.660156 72.742188 107.800781 L 76.917969 107.800781 C 77.195312 110.660156 77.855469 113.429688 78.902344 116.105469 Z M 118.664062 102.339844 L 30.992188 102.339844 C 30.519531 102.339844 30.0625 102.246094 29.625 102.066406 C 29.183594 101.882812 28.796875 101.625 28.460938 101.289062 C 28.128906 100.953125 27.867188 100.566406 27.6875 100.128906 C 27.503906 99.6875 27.414062 99.230469 27.410156 98.757812 L 27.410156 94.492188 L 122.246094 94.492188 L 122.246094 98.757812 C 122.246094 99.230469 122.152344 99.6875 121.972656 100.128906 C 121.789062 100.566406 121.53125 100.953125 121.195312 101.289062 C 120.859375 101.625 120.472656 101.882812 120.035156 102.066406 C 119.59375 102.246094 119.136719 102.339844 118.664062 102.339844 Z M 30.992188 43.992188 L 118.664062 43.992188 C 119.136719 43.992188 119.59375 44.082031 120.035156 44.265625 C 120.472656 44.449219 120.859375 44.707031 121.195312 45.042969 C 121.53125 45.378906 121.789062 45.765625 121.972656 46.203125 C 122.152344 46.644531 122.246094 47.097656 122.246094 47.574219 L 122.246094 89.03125 L 27.410156 89.03125 L 27.410156 47.574219 C 27.414062 47.097656 27.503906 46.644531 27.6875 46.203125 C 27.867188 45.765625 28.128906 45.378906 28.460938 45.042969 C 28.796875 44.707031 29.183594 44.449219 29.625 44.265625 C 30.0625 44.082031 30.519531 43.992188 30.992188 43.992188 Z M 30.992188 43.992188 " fill-opacity="1" fill-rule="nonzero"/></g><path fill="#000000" d="M 76.929688 95.398438 L 72.726562 95.398438 C 72.367188 95.398438 72.015625 95.46875 71.683594 95.609375 C 71.347656 95.746094 71.054688 95.941406 70.796875 96.199219 C 70.542969 96.457031 70.34375 96.75 70.207031 97.085938 C 70.066406 97.417969 70 97.765625 70 98.128906 C 70 98.492188 70.066406 98.839844 70.207031 99.175781 C 70.34375 99.507812 70.542969 99.804688 70.796875 100.058594 C 71.054688 100.316406 71.347656 100.511719 71.683594 100.652344 C 72.015625 100.789062 72.367188 100.859375 72.726562 100.859375 L 76.929688 100.859375 C 77.292969 100.859375 77.640625 100.789062 77.972656 100.652344 C 78.308594 100.511719 78.605469 100.316406 78.859375 100.058594 C 79.117188 99.804688 79.3125 99.507812 79.449219 99.175781 C 79.589844 98.839844 79.660156 98.492188 79.660156 98.128906 C 79.660156 97.765625 79.589844 97.417969 79.449219 97.085938 C 79.3125 96.75 79.117188 96.457031 78.859375 96.199219 C 78.605469 95.941406 78.308594 95.746094 77.972656 95.609375 C 77.640625 95.46875 77.292969 95.398438 76.929688 95.398438 Z M 76.929688 95.398438 " fill-opacity="1" fill-rule="nonzero"/><g clip-path="url(#99772ed2e5)"><path fill="#000000" d="M 6.027344 60.375 L 30.207031 60.375 C 29.933594 62.382812 29.375 64.308594 28.523438 66.144531 C 27.988281 66.292969 27.488281 66.523438 27.027344 66.839844 C 26.570312 67.152344 26.167969 67.53125 25.832031 67.976562 C 25.496094 68.421875 25.238281 68.910156 25.058594 69.4375 C 24.878906 69.96875 24.789062 70.515625 24.789062 71.074219 L 24.789062 73.292969 C 24.789062 73.539062 24.835938 73.773438 24.925781 73.996094 C 25.019531 74.222656 25.152344 74.421875 25.320312 74.59375 C 25.492188 74.765625 25.6875 74.898438 25.910156 74.988281 C 26.132812 75.082031 26.367188 75.128906 26.609375 75.128906 L 43.890625 75.128906 C 44.132812 75.128906 44.367188 75.082031 44.589844 74.988281 C 44.8125 74.898438 45.007812 74.765625 45.179688 74.59375 C 45.347656 74.421875 45.480469 74.222656 45.574219 73.996094 C 45.664062 73.773438 45.710938 73.539062 45.710938 73.292969 L 45.710938 71.074219 C 45.710938 70.515625 45.621094 69.96875 45.441406 69.4375 C 45.261719 68.910156 45.003906 68.421875 44.667969 67.976562 C 44.332031 67.53125 43.929688 67.152344 43.472656 66.839844 C 43.011719 66.523438 42.511719 66.292969 41.976562 66.144531 C 41.125 64.308594 40.566406 62.382812 40.292969 60.375 L 64.472656 60.375 C 64.867188 60.375 65.261719 60.335938 65.648438 60.257812 C 66.035156 60.179688 66.414062 60.0625 66.777344 59.910156 C 67.144531 59.757812 67.492188 59.570312 67.820312 59.351562 C 68.148438 59.128906 68.453125 58.875 68.734375 58.59375 C 69.011719 58.3125 69.261719 58.003906 69.484375 57.671875 C 69.703125 57.339844 69.886719 56.992188 70.039062 56.625 C 70.191406 56.253906 70.304688 55.875 70.382812 55.484375 C 70.460938 55.09375 70.5 54.699219 70.5 54.296875 L 70.5 19.902344 C 70.5 19.503906 70.460938 19.105469 70.382812 18.714844 C 70.304688 18.324219 70.191406 17.945312 70.039062 17.578125 C 69.886719 17.207031 69.703125 16.859375 69.484375 16.527344 C 69.261719 16.195312 69.011719 15.886719 68.734375 15.605469 C 68.453125 15.324219 68.148438 15.070312 67.820312 14.851562 C 67.492188 14.628906 67.144531 14.441406 66.777344 14.289062 C 66.414062 14.136719 66.035156 14.019531 65.648438 13.941406 C 65.261719 13.863281 64.867188 13.824219 64.472656 13.824219 L 6.027344 13.824219 C 5.632812 13.824219 5.238281 13.863281 4.851562 13.941406 C 4.464844 14.019531 4.085938 14.136719 3.722656 14.289062 C 3.355469 14.441406 3.007812 14.628906 2.679688 14.851562 C 2.351562 15.070312 2.046875 15.324219 1.765625 15.605469 C 1.488281 15.886719 1.238281 16.195312 1.015625 16.527344 C 0.796875 16.859375 0.613281 17.207031 0.460938 17.578125 C 0.308594 17.945312 0.195312 18.324219 0.117188 18.714844 C 0.0390625 19.105469 0 19.503906 0 19.902344 L 0 54.296875 C 0 54.699219 0.0390625 55.09375 0.117188 55.484375 C 0.195312 55.875 0.308594 56.253906 0.460938 56.625 C 0.613281 56.992188 0.796875 57.339844 1.015625 57.671875 C 1.238281 58.003906 1.488281 58.3125 1.765625 58.59375 C 2.046875 58.875 2.351562 59.128906 2.679688 59.351562 C 3.007812 59.570312 3.355469 59.757812 3.722656 59.910156 C 4.085938 60.0625 4.464844 60.179688 4.851562 60.257812 C 5.238281 60.335938 5.632812 60.375 6.027344 60.375 Z M 42.074219 71.460938 L 28.425781 71.460938 L 28.425781 71.074219 C 28.425781 70.882812 28.464844 70.699219 28.535156 70.519531 C 28.609375 70.34375 28.714844 70.1875 28.847656 70.050781 C 28.984375 69.914062 29.136719 69.808594 29.316406 69.734375 C 29.492188 69.664062 29.675781 69.625 29.863281 69.625 L 40.636719 69.625 C 40.824219 69.625 41.007812 69.664062 41.183594 69.734375 C 41.363281 69.808594 41.515625 69.914062 41.652344 70.050781 C 41.785156 70.1875 41.890625 70.34375 41.964844 70.519531 C 42.035156 70.699219 42.074219 70.882812 42.074219 71.074219 Z M 37.980469 65.957031 L 32.535156 65.957031 C 33.230469 64.15625 33.671875 62.296875 33.859375 60.375 L 36.640625 60.375 C 36.828125 62.296875 37.269531 64.15625 37.964844 65.957031 Z M 64.472656 56.707031 L 6.027344 56.707031 C 5.710938 56.707031 5.40625 56.644531 5.113281 56.523438 C 4.820312 56.398438 4.5625 56.226562 4.339844 56 C 4.117188 55.773438 3.941406 55.515625 3.820312 55.21875 C 3.699219 54.925781 3.640625 54.617188 3.640625 54.296875 L 3.640625 51.433594 L 66.859375 51.433594 L 66.859375 54.296875 C 66.859375 54.617188 66.800781 54.925781 66.679688 55.21875 C 66.558594 55.515625 66.382812 55.773438 66.160156 56 C 65.9375 56.226562 65.679688 56.398438 65.386719 56.523438 C 65.09375 56.644531 64.789062 56.707031 64.472656 56.707031 Z M 6.027344 17.492188 L 64.472656 17.492188 C 64.789062 17.492188 65.09375 17.554688 65.386719 17.679688 C 65.679688 17.800781 65.9375 17.972656 66.160156 18.199219 C 66.382812 18.425781 66.558594 18.6875 66.679688 18.980469 C 66.800781 19.273438 66.859375 19.582031 66.859375 19.902344 L 66.859375 47.761719 L 3.640625 47.761719 L 3.640625 19.902344 C 3.640625 19.582031 3.699219 19.273438 3.820312 18.980469 C 3.941406 18.6875 4.117188 18.425781 4.339844 18.199219 C 4.5625 17.972656 4.820312 17.800781 5.113281 17.679688 C 5.40625 17.554688 5.710938 17.492188 6.027344 17.492188 Z M 6.027344 17.492188 " fill-opacity="1" fill-rule="nonzero"/></g><path fill="#000000" d="M 36.652344 52.042969 L 33.847656 52.042969 C 33.609375 52.042969 33.375 52.089844 33.152344 52.179688 C 32.929688 52.273438 32.734375 52.40625 32.5625 52.578125 C 32.390625 52.75 32.261719 52.949219 32.167969 53.175781 C 32.074219 53.398438 32.03125 53.632812 32.03125 53.875 C 32.03125 54.121094 32.074219 54.355469 32.167969 54.578125 C 32.261719 54.804688 32.390625 55 32.5625 55.171875 C 32.734375 55.34375 32.929688 55.476562 33.152344 55.570312 C 33.375 55.664062 33.609375 55.710938 33.847656 55.710938 L 36.652344 55.710938 C 36.890625 55.710938 37.125 55.664062 37.347656 55.570312 C 37.570312 55.476562 37.765625 55.34375 37.9375 55.171875 C 38.109375 55 38.238281 54.804688 38.332031 54.578125 C 38.425781 54.355469 38.46875 54.121094 38.46875 53.875 C 38.46875 53.632812 38.425781 53.398438 38.332031 53.175781 C 38.238281 52.949219 38.109375 52.75 37.9375 52.578125 C 37.765625 52.40625 37.570312 52.273438 37.347656 52.179688 C 37.125 52.089844 36.890625 52.042969 36.652344 52.042969 Z M 36.652344 52.042969 " fill-opacity="1" fill-rule="nonzero"/><g clip-path="url(#14139e8bd1)"><path fill="#000000" d="M 85.199219 60.375 L 109.378906 60.375 C 109.109375 62.382812 108.546875 64.308594 107.695312 66.144531 C 107.160156 66.292969 106.660156 66.523438 106.199219 66.839844 C 105.742188 67.152344 105.339844 67.53125 105.003906 67.976562 C 104.667969 68.421875 104.410156 68.910156 104.230469 69.4375 C 104.050781 69.96875 103.960938 70.515625 103.960938 71.074219 L 103.960938 73.292969 C 103.960938 73.539062 104.007812 73.773438 104.097656 73.996094 C 104.191406 74.222656 104.324219 74.421875 104.492188 74.59375 C 104.664062 74.765625 104.859375 74.898438 105.082031 74.988281 C 105.308594 75.082031 105.539062 75.128906 105.78125 75.128906 L 123.0625 75.128906 C 123.304688 75.128906 123.539062 75.082031 123.761719 74.988281 C 123.984375 74.898438 124.179688 74.765625 124.351562 74.59375 C 124.519531 74.421875 124.652344 74.222656 124.746094 73.996094 C 124.835938 73.773438 124.882812 73.539062 124.882812 73.292969 L 124.882812 71.074219 C 124.882812 70.515625 124.792969 69.96875 124.613281 69.4375 C 124.433594 68.910156 124.175781 68.421875 123.839844 67.976562 C 123.503906 67.53125 123.101562 67.152344 122.644531 66.839844 C 122.183594 66.523438 121.683594 66.292969 121.148438 66.144531 C 120.296875 64.308594 119.738281 62.382812 119.464844 60.375 L 143.644531 60.375 C 144.039062 60.375 144.433594 60.335938 144.820312 60.257812 C 145.207031 60.179688 145.585938 60.0625 145.949219 59.910156 C 146.316406 59.757812 146.664062 59.570312 146.992188 59.351562 C 147.320312 59.128906 147.625 58.875 147.90625 58.59375 C 148.183594 58.3125 148.433594 58.003906 148.65625 57.671875 C 148.875 57.339844 149.058594 56.992188 149.210938 56.625 C 149.363281 56.253906 149.476562 55.875 149.554688 55.484375 C 149.632812 55.09375 149.671875 54.699219 149.671875 54.296875 L 149.671875 19.902344 C 149.671875 19.503906 149.632812 19.105469 149.554688 18.714844 C 149.476562 18.324219 149.363281 17.945312 149.210938 17.578125 C 149.058594 17.207031 148.875 16.859375 148.65625 16.527344 C 148.433594 16.195312 148.183594 15.886719 147.90625 15.605469 C 147.625 15.324219 147.320312 15.070312 146.992188 14.851562 C 146.664062 14.628906 146.316406 14.441406 145.949219 14.289062 C 145.585938 14.136719 145.207031 14.019531 144.820312 13.941406 C 144.433594 13.863281 144.039062 13.824219 143.644531 13.824219 L 85.199219 13.824219 C 84.804688 13.824219 84.410156 13.863281 84.023438 13.941406 C 83.636719 14.019531 83.257812 14.136719 82.894531 14.289062 C 82.527344 14.441406 82.179688 14.628906 81.851562 14.851562 C 81.523438 15.070312 81.21875 15.324219 80.9375 15.605469 C 80.660156 15.886719 80.410156 16.195312 80.1875 16.527344 C 79.96875 16.859375 79.785156 17.207031 79.632812 17.578125 C 79.480469 17.945312 79.367188 18.324219 79.289062 18.714844 C 79.210938 19.105469 79.171875 19.503906 79.171875 19.902344 L 79.171875 54.296875 C 79.171875 54.699219 79.210938 55.09375 79.289062 55.484375 C 79.367188 55.875 79.480469 56.253906 79.632812 56.625 C 79.785156 56.992188 79.96875 57.339844 80.1875 57.671875 C 80.410156 58.003906 80.660156 58.3125 80.9375 58.59375 C 81.21875 58.875 81.523438 59.128906 81.851562 59.351562 C 82.179688 59.570312 82.527344 59.757812 82.894531 59.910156 C 83.257812 60.0625 83.636719 60.179688 84.023438 60.257812 C 84.410156 60.335938 84.804688 60.375 85.199219 60.375 Z M 121.246094 71.460938 L 107.597656 71.460938 L 107.597656 71.074219 C 107.597656 70.882812 107.636719 70.699219 107.707031 70.519531 C 107.78125 70.34375 107.886719 70.1875 108.019531 70.050781 C 108.15625 69.914062 108.3125 69.808594 108.488281 69.734375 C 108.664062 69.664062 108.847656 69.625 109.035156 69.625 L 119.808594 69.625 C 119.996094 69.625 120.179688 69.664062 120.355469 69.734375 C 120.535156 69.808594 120.6875 69.914062 120.824219 70.050781 C 120.957031 70.1875 121.0625 70.34375 121.136719 70.519531 C 121.207031 70.699219 121.246094 70.882812 121.246094 71.074219 Z M 117.152344 65.957031 L 111.707031 65.957031 C 112.402344 64.15625 112.84375 62.296875 113.03125 60.375 L 115.8125 60.375 C 116 62.296875 116.441406 64.15625 117.136719 65.957031 Z M 143.644531 56.707031 L 85.199219 56.707031 C 84.882812 56.707031 84.578125 56.644531 84.285156 56.523438 C 83.992188 56.398438 83.734375 56.226562 83.511719 56 C 83.289062 55.773438 83.113281 55.515625 82.992188 55.21875 C 82.871094 54.925781 82.8125 54.617188 82.8125 54.296875 L 82.8125 51.433594 L 146.035156 51.433594 L 146.035156 54.296875 C 146.03125 54.617188 145.972656 54.925781 145.851562 55.21875 C 145.730469 55.515625 145.554688 55.773438 145.332031 56 C 145.109375 56.226562 144.851562 56.398438 144.558594 56.523438 C 144.265625 56.644531 143.960938 56.707031 143.644531 56.707031 Z M 85.199219 17.492188 L 143.644531 17.492188 C 143.960938 17.492188 144.265625 17.554688 144.558594 17.679688 C 144.851562 17.800781 145.109375 17.972656 145.332031 18.199219 C 145.554688 18.425781 145.730469 18.6875 145.851562 18.980469 C 145.972656 19.273438 146.03125 19.582031 146.035156 19.902344 L 146.035156 47.761719 L 82.8125 47.761719 L 82.8125 19.902344 C 82.8125 19.582031 82.871094 19.273438 82.992188 18.980469 C 83.113281 18.6875 83.289062 18.425781 83.511719 18.199219 C 83.734375 17.972656 83.992188 17.800781 84.285156 17.679688 C 84.578125 17.554688 84.882812 17.492188 85.199219 17.492188 Z M 85.199219 17.492188 " fill-opacity="1" fill-rule="nonzero"/></g><path fill="#000000" d="M 115.824219 52.042969 L 113.019531 52.042969 C 112.78125 52.042969 112.546875 52.089844 112.324219 52.179688 C 112.101562 52.273438 111.90625 52.40625 111.734375 52.578125 C 111.5625 52.75 111.433594 52.949219 111.339844 53.175781 C 111.246094 53.398438 111.203125 53.632812 111.203125 53.875 C 111.203125 54.121094 111.246094 54.355469 111.339844 54.578125 C 111.433594 54.804688 111.5625 55 111.734375 55.171875 C 111.90625 55.34375 112.101562 55.476562 112.324219 55.570312 C 112.546875 55.664062 112.78125 55.710938 113.019531 55.710938 L 115.824219 55.710938 C 116.0625 55.710938 116.296875 55.664062 116.519531 55.570312 C 116.742188 55.476562 116.9375 55.34375 117.109375 55.171875 C 117.28125 55 117.410156 54.804688 117.503906 54.578125 C 117.597656 54.355469 117.640625 54.121094 117.640625 53.875 C 117.640625 53.632812 117.597656 53.398438 117.503906 53.175781 C 117.410156 52.949219 117.28125 52.75 117.109375 52.578125 C 116.9375 52.40625 116.742188 52.273438 116.519531 52.179688 C 116.296875 52.089844 116.0625 52.042969 115.824219 52.042969 Z M 115.824219 52.042969 " fill-opacity="1" fill-rule="nonzero"/></svg>