<svg xmlns="http://www.w3.org/2000/svg" xmlns:xlink="http://www.w3.org/1999/xlink" width="200" zoomAndPan="magnify" viewBox="0 0 150 149.999998" height="200" preserveAspectRatio="xMidYMid meet" version="1.0"><defs><clipPath id="be844b4927"><path d="M 0 10.125 L 150 10.125 L 150 139.875 L 0 139.875 Z M 0 10.125 " clip-rule="nonzero"/></clipPath></defs><g clip-path="url(#be844b4927)"><path fill="#000000" d="M 12.824219 108.53125 L 64.269531 108.53125 C 63.691406 112.773438 62.5 116.832031 60.6875 120.707031 C 60.121094 120.863281 59.570312 121.0625 59.039062 121.308594 C 58.503906 121.554688 57.996094 121.839844 57.507812 122.167969 C 57.023438 122.496094 56.566406 122.863281 56.136719 123.265625 C 55.710938 123.667969 55.320312 124.105469 54.960938 124.570312 C 54.605469 125.035156 54.289062 125.527344 54.015625 126.046875 C 53.738281 126.566406 53.503906 127.101562 53.316406 127.65625 C 53.128906 128.214844 52.984375 128.78125 52.890625 129.359375 C 52.792969 129.941406 52.742188 130.523438 52.742188 131.109375 L 52.742188 135.792969 C 52.742188 136.308594 52.839844 136.800781 53.035156 137.273438 C 53.234375 137.75 53.511719 138.167969 53.875 138.53125 C 54.238281 138.894531 54.65625 139.171875 55.132812 139.371094 C 55.605469 139.566406 56.097656 139.664062 56.613281 139.664062 L 93.386719 139.664062 C 93.902344 139.664062 94.394531 139.566406 94.867188 139.371094 C 95.34375 139.171875 95.761719 138.894531 96.125 138.53125 C 96.488281 138.167969 96.765625 137.75 96.964844 137.273438 C 97.160156 136.800781 97.257812 136.308594 97.257812 135.792969 L 97.257812 131.109375 C 97.257812 130.523438 97.207031 129.941406 97.109375 129.359375 C 97.015625 128.78125 96.871094 128.214844 96.683594 127.65625 C 96.496094 127.101562 96.261719 126.566406 95.984375 126.046875 C 95.710938 125.527344 95.394531 125.035156 95.039062 124.570312 C 94.679688 124.105469 94.289062 123.667969 93.863281 123.265625 C 93.433594 122.863281 92.976562 122.496094 92.492188 122.167969 C 92.003906 121.839844 91.496094 121.554688 90.960938 121.308594 C 90.429688 121.0625 89.878906 120.863281 89.3125 120.707031 C 87.5 116.832031 86.308594 112.773438 85.730469 108.53125 L 137.175781 108.53125 C 138.019531 108.53125 138.851562 108.449219 139.679688 108.285156 C 140.503906 108.121094 141.304688 107.875 142.082031 107.554688 C 142.859375 107.230469 143.597656 106.835938 144.300781 106.367188 C 145 105.902344 145.644531 105.367188 146.242188 104.773438 C 146.835938 104.179688 147.367188 103.53125 147.835938 102.832031 C 148.304688 102.132812 148.699219 101.394531 149.019531 100.613281 C 149.34375 99.835938 149.585938 99.035156 149.753906 98.210938 C 149.917969 97.386719 150 96.550781 150 95.710938 L 150 23.128906 C 150 22.289062 149.917969 21.453125 149.753906 20.628906 C 149.585938 19.800781 149.34375 19 149.019531 18.222656 C 148.699219 17.445312 148.304688 16.707031 147.835938 16.007812 C 147.367188 15.308594 146.835938 14.660156 146.242188 14.066406 C 145.644531 13.46875 145 12.9375 144.300781 12.46875 C 143.597656 12.003906 142.859375 11.609375 142.082031 11.285156 C 141.304688 10.960938 140.503906 10.71875 139.679688 10.554688 C 138.851562 10.390625 138.019531 10.308594 137.175781 10.304688 L 12.824219 10.304688 C 11.980469 10.308594 11.148438 10.390625 10.320312 10.554688 C 9.496094 10.71875 8.695312 10.960938 7.917969 11.285156 C 7.140625 11.609375 6.402344 12.003906 5.699219 12.46875 C 5 12.9375 4.355469 13.46875 3.757812 14.066406 C 3.164062 14.660156 2.632812 15.308594 2.164062 16.007812 C 1.695312 16.707031 1.300781 17.445312 0.980469 18.222656 C 0.65625 19 0.414062 19.800781 0.246094 20.628906 C 0.0820312 21.453125 0 22.289062 0 23.128906 L 0 95.710938 C 0 96.550781 0.0820312 97.386719 0.246094 98.210938 C 0.414062 99.035156 0.65625 99.835938 0.980469 100.613281 C 1.300781 101.394531 1.695312 102.132812 2.164062 102.832031 C 2.632812 103.53125 3.164062 104.179688 3.757812 104.773438 C 4.355469 105.367188 5 105.902344 5.699219 106.367188 C 6.402344 106.835938 7.140625 107.230469 7.917969 107.554688 C 8.695312 107.875 9.496094 108.121094 10.320312 108.285156 C 11.148438 108.449219 11.980469 108.53125 12.824219 108.53125 Z M 89.515625 131.921875 L 60.484375 131.921875 L 60.484375 131.109375 C 60.484375 130.703125 60.5625 130.3125 60.714844 129.9375 C 60.871094 129.566406 61.09375 129.234375 61.378906 128.949219 C 61.667969 128.660156 61.996094 128.441406 62.371094 128.285156 C 62.746094 128.128906 63.136719 128.050781 63.542969 128.050781 L 86.457031 128.050781 C 86.863281 128.050781 87.253906 128.128906 87.628906 128.285156 C 88.003906 128.441406 88.332031 128.660156 88.621094 128.949219 C 88.90625 129.234375 89.128906 129.566406 89.285156 129.9375 C 89.4375 130.3125 89.515625 130.703125 89.515625 131.109375 Z M 80.804688 120.308594 L 69.222656 120.308594 C 70.707031 116.515625 71.644531 112.589844 72.039062 108.53125 L 77.960938 108.53125 C 78.355469 112.589844 79.292969 116.515625 80.777344 120.308594 Z M 137.175781 100.789062 L 12.824219 100.789062 C 12.488281 100.789062 12.160156 100.757812 11.832031 100.691406 C 11.503906 100.625 11.1875 100.527344 10.878906 100.402344 C 10.570312 100.273438 10.28125 100.117188 10.003906 99.929688 C 9.726562 99.746094 9.46875 99.535156 9.234375 99.300781 C 8.996094 99.0625 8.785156 98.808594 8.601562 98.53125 C 8.414062 98.253906 8.257812 97.960938 8.132812 97.652344 C 8.003906 97.34375 7.90625 97.027344 7.839844 96.699219 C 7.777344 96.375 7.742188 96.042969 7.742188 95.710938 L 7.742188 89.660156 L 142.257812 89.660156 L 142.257812 95.710938 C 142.257812 96.042969 142.222656 96.375 142.160156 96.699219 C 142.09375 97.027344 141.996094 97.34375 141.867188 97.652344 C 141.742188 97.960938 141.585938 98.253906 141.398438 98.53125 C 141.214844 98.808594 141.003906 99.0625 140.765625 99.300781 C 140.53125 99.535156 140.273438 99.746094 139.996094 99.929688 C 139.71875 100.117188 139.429688 100.273438 139.121094 100.402344 C 138.8125 100.527344 138.496094 100.625 138.167969 100.691406 C 137.839844 100.757812 137.511719 100.789062 137.175781 100.789062 Z M 12.824219 18.046875 L 137.175781 18.046875 C 137.511719 18.050781 137.839844 18.082031 138.167969 18.148438 C 138.496094 18.214844 138.8125 18.308594 139.121094 18.4375 C 139.429688 18.566406 139.71875 18.722656 139.996094 18.90625 C 140.273438 19.09375 140.53125 19.304688 140.765625 19.539062 C 141.003906 19.773438 141.214844 20.03125 141.398438 20.308594 C 141.585938 20.585938 141.742188 20.878906 141.867188 21.1875 C 141.996094 21.496094 142.09375 21.8125 142.160156 22.136719 C 142.222656 22.464844 142.257812 22.796875 142.257812 23.128906 L 142.257812 81.917969 L 7.742188 81.917969 L 7.742188 23.128906 C 7.742188 22.796875 7.777344 22.464844 7.839844 22.136719 C 7.90625 21.8125 8.003906 21.496094 8.132812 21.1875 C 8.257812 20.878906 8.414062 20.585938 8.601562 20.308594 C 8.785156 20.03125 8.996094 19.773438 9.234375 19.539062 C 9.46875 19.304688 9.726562 19.09375 10.003906 18.90625 C 10.28125 18.722656 10.570312 18.566406 10.878906 18.4375 C 11.1875 18.308594 11.503906 18.214844 11.832031 18.148438 C 12.160156 18.082031 12.488281 18.050781 12.824219 18.046875 Z M 12.824219 18.046875 " fill-opacity="1" fill-rule="nonzero"/></g><path fill="#000000" d="M 77.980469 90.949219 L 72.019531 90.949219 C 71.507812 90.949219 71.011719 91.046875 70.539062 91.242188 C 70.0625 91.441406 69.644531 91.71875 69.28125 92.082031 C 68.917969 92.445312 68.640625 92.863281 68.441406 93.339844 C 68.246094 93.8125 68.148438 94.304688 68.148438 94.820312 C 68.148438 95.332031 68.246094 95.828125 68.441406 96.300781 C 68.640625 96.773438 68.917969 97.195312 69.28125 97.554688 C 69.644531 97.917969 70.0625 98.199219 70.539062 98.394531 C 71.011719 98.59375 71.507812 98.691406 72.019531 98.691406 L 77.980469 98.691406 C 78.492188 98.691406 78.988281 98.59375 79.460938 98.394531 C 79.9375 98.199219 80.355469 97.917969 80.71875 97.554688 C 81.082031 97.195312 81.359375 96.773438 81.558594 96.300781 C 81.753906 95.828125 81.851562 95.332031 81.851562 94.820312 C 81.851562 94.304688 81.753906 93.8125 81.558594 93.339844 C 81.359375 92.863281 81.082031 92.445312 80.71875 92.082031 C 80.355469 91.71875 79.9375 91.441406 79.460938 91.242188 C 78.988281 91.046875 78.492188 90.949219 77.980469 90.949219 Z M 77.980469 90.949219 " fill-opacity="1" fill-rule="nonzero"/></svg>