<svg xmlns="http://www.w3.org/2000/svg" xmlns:xlink="http://www.w3.org/1999/xlink" width="80" zoomAndPan="magnify" viewBox="0 0 60 60" height="80" preserveAspectRatio="xMidYMid meet" version="1.0"><defs><g/></defs><path fill="#000000" d="M 30.082031 60.164062 C 13.496094 60.164062 0 46.667969 0 30.082031 C 0 13.496094 13.496094 0 30.082031 0 C 46.667969 0 60.164062 13.496094 60.164062 30.082031 C 60.164062 46.667969 46.667969 60.164062 30.082031 60.164062 Z M 30.082031 2.101562 C 14.652344 2.101562 2.101562 14.65625 2.101562 30.082031 C 2.101562 45.507812 14.652344 58.058594 30.082031 58.058594 C 45.507812 58.058594 58.058594 45.507812 58.058594 30.082031 C 58.058594 14.65625 45.507812 2.101562 30.082031 2.101562 Z M 30.082031 2.101562 " fill-opacity="1" fill-rule="nonzero"/><g fill="#000000" fill-opacity="1"><g transform="translate(14.846409, 21.085492)"><g><path d="M 1.484375 0 L 3.835938 0 C 7.414062 0 10.917969 -2.558594 10.917969 -5.769531 C 10.917969 -8.679688 8.066406 -11.542969 4.492188 -11.542969 L 1.484375 -11.542969 Z M 3.734375 -0.0585938 C 2.804688 -0.0585938 2.515625 -0.277344 2.515625 -0.496094 L 2.515625 -11.484375 L 4.246094 -11.484375 C 7.328125 -11.484375 9.785156 -8.648438 9.785156 -5.769531 C 9.785156 -2.601562 6.789062 -0.0585938 3.734375 -0.0585938 Z M 3.734375 -0.0585938 "/></g></g><g transform="translate(26.563402, 21.085492)"><g><path d="M 4.566406 0.144531 C 6.179688 0.144531 7.761719 -1.335938 7.761719 -2.863281 C 7.761719 -3.925781 6.484375 -5.566406 4.871094 -6.308594 C 3.183594 -7.09375 1.832031 -8.460938 1.832031 -9.203125 C 1.832031 -10.421875 2.792969 -11.613281 3.78125 -11.613281 C 4.246094 -11.613281 4.78125 -11.457031 5.277344 -11.195312 C 5.859375 -10.886719 6.65625 -10.058594 6.875 -9.507812 C 6.890625 -9.449219 6.949219 -9.363281 6.964844 -9.304688 L 7.152344 -9.304688 L 7.152344 -10.773438 L 7.078125 -10.773438 L 7.066406 -10.613281 C 7.050781 -10.4375 6.714844 -10.511719 6.410156 -10.742188 C 5.800781 -11.207031 4.753906 -11.703125 3.78125 -11.703125 C 2.382812 -11.703125 1.019531 -10.261719 1.019531 -8.808594 C 1.019531 -7.761719 2.457031 -6.078125 4.257812 -5.234375 C 5.742188 -4.535156 6.933594 -3.285156 6.933594 -2.558594 C 6.933594 -1.25 5.757812 0.0429688 4.566406 0.0429688 C 3.925781 0.0429688 3.125 -0.304688 2.425781 -0.828125 C 1.90625 -1.25 1.25 -2.109375 1.03125 -2.644531 C 1.019531 -2.703125 0.960938 -2.792969 0.945312 -2.847656 L 0.757812 -2.847656 L 0.757812 -0.859375 L 0.828125 -0.859375 L 0.84375 -1.148438 C 0.859375 -1.46875 1.292969 -1.4375 1.699219 -1.089844 C 2.53125 -0.378906 3.664062 0.144531 4.566406 0.144531 Z M 4.566406 0.144531 "/></g></g><g transform="translate(34.907761, 21.085492)"><g><path d="M 4.769531 0.175781 L 4.972656 0.175781 L 8.96875 -10.21875 C 9.261719 -10.875 9.726562 -11.46875 9.945312 -11.46875 L 10.015625 -11.46875 L 10 -11.542969 L 7.589844 -11.542969 L 7.589844 -11.5 L 7.804688 -11.5 C 8.417969 -11.5 8.765625 -10.773438 8.488281 -10.046875 L 5.292969 -1.308594 L 2.136719 -10.058594 C 1.890625 -10.773438 2.136719 -11.484375 2.660156 -11.484375 L 2.847656 -11.484375 L 2.847656 -11.527344 L 0.0742188 -11.527344 L 0.0742188 -11.484375 L 0.128906 -11.484375 C 0.289062 -11.484375 0.699219 -10.757812 0.972656 -10.03125 Z M 4.769531 0.175781 "/></g></g></g><g fill="#000000" fill-opacity="1"><g transform="translate(11.997116, 40.933632)"><g><path d="M -0.390625 3.199219 C 0.640625 3.199219 2.542969 1.875 2.542969 -1.292969 L 2.542969 -11.542969 L 1.511719 -11.542969 L 1.511719 0.652344 C 1.511719 2.371094 0.335938 3.082031 -0.320312 3.082031 C -0.742188 3.082031 -0.667969 2.253906 -1.089844 2.253906 C -1.324219 2.253906 -1.554688 2.484375 -1.554688 2.71875 C -1.554688 2.964844 -0.972656 3.199219 -0.390625 3.199219 Z M -0.390625 3.199219 "/></g></g><g transform="translate(15.907626, 40.933632)"><g><path d="M -0.421875 0 L 2.121094 0 L 2.121094 -0.0429688 L 1.933594 -0.0429688 C 1.410156 -0.0429688 1.121094 -0.769531 1.351562 -1.496094 L 2.28125 -4.519531 L 6.25 -4.519531 L 7.210938 -1.367188 C 7.355469 -0.683594 7.066406 -0.0585938 6.570312 -0.0585938 L 6.382812 -0.0585938 L 6.394531 0 L 9.363281 0 L 9.363281 -0.0429688 L 9.261719 -0.0429688 C 8.984375 -0.0429688 8.488281 -0.769531 8.257812 -1.496094 C 7.179688 -4.941406 6.105469 -8.386719 5.042969 -11.832031 L 4.941406 -11.832031 C 4.984375 -11.585938 4.621094 -11.28125 4.203125 -11.222656 L 4.246094 -11.078125 L 1.265625 -1.496094 C 1.03125 -0.757812 0.289062 -0.0429688 -0.234375 -0.0429688 L -0.421875 -0.0429688 Z M 2.296875 -4.621094 L 4.257812 -11.003906 L 6.207031 -4.621094 Z M 2.296875 -4.621094 "/></g></g><g transform="translate(25.26959, 40.933632)"><g><path d="M 5.320312 0.015625 L 6.351562 0.015625 L 6.351562 -11.265625 L 9.304688 -11.265625 C 9.929688 -11.265625 10.816406 -10.816406 11.105469 -10.351562 L 11.222656 -10.175781 L 11.339844 -10.191406 L 10.859375 -11.410156 L 10.859375 -11.542969 L 0.800781 -11.542969 L 0.800781 -11.339844 C 0.667969 -11.019531 0.449219 -10.464844 0.347656 -10.175781 L 0.480469 -10.175781 L 0.597656 -10.351562 C 0.886719 -10.816406 1.773438 -11.265625 2.398438 -11.265625 L 5.320312 -11.265625 Z M 0.785156 -11.511719 C 0.800781 -11.527344 0.800781 -11.542969 0.800781 -11.542969 Z M 10.933594 -11.398438 C 10.933594 -11.425781 10.886719 -11.527344 10.886719 -11.527344 L 10.875 -11.527344 Z M 0.742188 -11.410156 C 0.757812 -11.425781 0.769531 -11.457031 0.769531 -11.46875 Z M 0.742188 -11.410156 "/></g></g><g transform="translate(36.913896, 40.933632)"><g><path d="M 2.007812 0 L 3.039062 0 L 3.039062 -5.886719 L 8.679688 -5.886719 L 8.679688 0 L 9.710938 0 L 9.710938 -11.542969 L 8.679688 -11.542969 L 8.679688 -5.976562 L 3.039062 -5.976562 L 3.039062 -11.542969 L 2.007812 -11.542969 Z M 2.007812 0 "/></g></g></g><g fill="#000000" fill-opacity="1"><g transform="translate(12.816154, 47.258731)"><g><path d="M 0.375 0.34375 L 0.59375 0.542969 L 1.65625 -0.613281 L 1.832031 -0.449219 C 2.332031 0.0078125 3.058594 0.191406 3.394531 -0.175781 C 3.714844 -0.523438 3.625 -1.234375 3.21875 -1.609375 L 2.648438 -2.132812 Z M 1.699219 -0.660156 L 2.832031 -1.898438 L 3.128906 -1.625 C 3.460938 -1.320312 3.507812 -0.710938 3.222656 -0.398438 C 2.894531 -0.0429688 2.269531 -0.136719 1.875 -0.496094 Z M 1.699219 -0.660156 "/></g></g></g><g fill="#000000" fill-opacity="1"><g transform="translate(14.746416, 49.032883)"><g><path d="M 0.351562 0.257812 L 0.59375 0.4375 L 1.558594 -0.878906 L 2.074219 -0.5 C 2.023438 -0.324219 1.886719 0.339844 1.773438 0.960938 C 1.730469 1.183594 1.808594 1.3125 2.164062 1.582031 C 2.035156 1.464844 2.015625 1.367188 2.050781 1.167969 L 2.328125 -0.355469 C 2.703125 -0.195312 3.136719 -0.234375 3.355469 -0.535156 C 3.640625 -0.921875 3.519531 -1.589844 3.113281 -1.886719 L 2.339844 -2.453125 Z M 1.605469 -0.941406 L 2.550781 -2.230469 L 3.007812 -1.894531 C 3.316406 -1.667969 3.371094 -1.117188 3.128906 -0.78125 C 2.863281 -0.421875 2.402344 -0.351562 2.132812 -0.550781 Z M 1.605469 -0.941406 "/></g></g></g><g fill="#000000" fill-opacity="1"><g transform="translate(17.187517, 50.840717)"><g><path d="M 1.515625 0.875 C 2.234375 1.269531 3.347656 0.910156 3.765625 0.144531 C 4.1875 -0.621094 3.90625 -1.742188 3.207031 -2.125 C 2.523438 -2.5 1.441406 -2.121094 1.023438 -1.355469 C 0.605469 -0.589844 0.847656 0.511719 1.515625 0.875 Z M 1.527344 0.859375 C 1.003906 0.574219 0.894531 -0.445312 1.308594 -1.199219 C 1.722656 -1.953125 2.652344 -2.40625 3.191406 -2.109375 C 3.75 -1.804688 3.894531 -0.765625 3.480469 -0.0117188 C 3.070312 0.742188 2.101562 1.175781 1.527344 0.859375 Z M 1.527344 0.859375 "/></g></g></g><g fill="#000000" fill-opacity="1"><g transform="translate(20.53849, 52.645062)"><g><path d="M 1.578125 0.640625 C 2.105469 0.835938 2.738281 0.910156 3.101562 0.886719 L 3.097656 0.871094 C 3.007812 0.878906 2.894531 0.875 2.769531 0.863281 L 3.222656 -0.34375 L 2.941406 -0.449219 L 2.8125 -0.101562 C 2.816406 -0.0976562 2.582031 0.535156 2.566406 0.570312 C 2.464844 0.71875 2.113281 0.773438 1.648438 0.597656 C 1.089844 0.386719 0.832031 -0.589844 1.128906 -1.375 C 1.429688 -2.179688 2.269531 -2.765625 2.824219 -2.558594 C 3.058594 -2.46875 3.253906 -2.296875 3.402344 -2.09375 C 3.402344 -2.09375 3.640625 -1.734375 3.660156 -1.492188 C 3.660156 -1.476562 3.664062 -1.445312 3.664062 -1.429688 L 3.710938 -1.410156 L 3.875 -1.847656 L 3.855469 -1.855469 L 3.832031 -1.804688 C 3.800781 -1.742188 3.691406 -1.804688 3.609375 -1.933594 C 3.441406 -2.195312 3.179688 -2.441406 2.824219 -2.574219 C 2.117188 -2.839844 1.128906 -2.304688 0.820312 -1.488281 C 0.515625 -0.671875 0.890625 0.378906 1.578125 0.640625 Z M 1.578125 0.640625 "/></g></g></g><g fill="#000000" fill-opacity="1"><g transform="translate(23.782902, 53.839429)"><g><path d="M 0.425781 0.101562 L 0.714844 0.171875 L 1.09375 -1.414062 L 1.714844 -1.265625 C 1.738281 -1.085938 1.871094 -0.421875 2.007812 0.195312 C 2.054688 0.417969 2.179688 0.507812 2.609375 0.617188 C 2.441406 0.5625 2.390625 0.476562 2.34375 0.28125 L 2.007812 -1.230469 C 2.414062 -1.230469 2.796875 -1.4375 2.882812 -1.796875 C 2.996094 -2.261719 2.625 -2.832031 2.136719 -2.949219 L 1.203125 -3.167969 Z M 1.113281 -1.488281 L 1.484375 -3.046875 L 2.035156 -2.914062 C 2.40625 -2.824219 2.671875 -2.339844 2.578125 -1.9375 C 2.472656 -1.5 2.078125 -1.257812 1.75 -1.335938 Z M 1.113281 -1.488281 "/></g></g></g><g fill="#000000" fill-opacity="1"><g transform="translate(26.71308, 54.525268)"><g><path d="M -0.121094 -0.015625 L 0.613281 0.0742188 L 0.617188 0.0625 L 0.5625 0.0546875 C 0.410156 0.0351562 0.351562 -0.183594 0.441406 -0.386719 L 0.816406 -1.226562 L 1.964844 -1.089844 L 2.132812 -0.144531 C 2.152344 0.0585938 2.046875 0.230469 1.902344 0.210938 L 1.847656 0.207031 L 1.851562 0.222656 L 2.707031 0.324219 L 2.707031 0.3125 L 2.679688 0.308594 C 2.601562 0.300781 2.480469 0.0742188 2.441406 -0.144531 C 2.25 -1.179688 2.058594 -2.214844 1.871094 -3.246094 L 1.839844 -3.25 C 1.84375 -3.175781 1.730469 -3.101562 1.605469 -3.097656 L 1.613281 -3.054688 L 0.417969 -0.390625 C 0.324219 -0.183594 0.0859375 -0.00390625 -0.0664062 -0.0195312 L -0.121094 -0.0273438 Z M 0.824219 -1.257812 L 1.613281 -3.035156 L 1.957031 -1.121094 Z M 0.824219 -1.257812 "/></g></g></g><g fill="#000000" fill-opacity="1"><g transform="translate(29.595858, 54.882791)"><g><path d="M 0.207031 0.00390625 L 0.609375 0 L 0.609375 -0.0117188 L 0.585938 -0.0117188 C 0.519531 -0.0117188 0.464844 -0.117188 0.464844 -0.222656 L 0.5 -2.953125 C 0.898438 -1.96875 1.292969 -0.984375 1.695312 -0.0078125 L 1.769531 -0.0078125 L 1.773438 -0.0273438 L 2.828125 -3.09375 L 2.917969 -0.207031 C 2.910156 -0.09375 2.859375 -0.0273438 2.777344 -0.0234375 L 2.777344 -0.0117188 L 3.371094 -0.015625 L 3.371094 -0.0273438 L 3.34375 -0.0273438 C 3.285156 -0.0273438 3.222656 -0.132812 3.214844 -0.238281 L 3.117188 -3.191406 C 3.125 -3.300781 3.175781 -3.363281 3.257812 -3.363281 L 3.25 -3.382812 L 2.8125 -3.378906 L 1.820312 -0.394531 L 0.691406 -3.367188 L 0.191406 -3.363281 L 0.191406 -3.351562 C 0.277344 -3.351562 0.371094 -3.261719 0.421875 -3.144531 C 0.398438 -2.171875 0.382812 -1.191406 0.359375 -0.222656 C 0.355469 -0.117188 0.292969 -0.0117188 0.234375 -0.0117188 L 0.207031 -0.0078125 Z M 0.207031 0.00390625 "/></g></g></g><g fill="#000000" fill-opacity="1"><g transform="translate(33.183708, 54.828672)"><g><path d="M -0.121094 0.015625 L 0.613281 -0.0820312 L 0.609375 -0.09375 L 0.554688 -0.0859375 C 0.40625 -0.0664062 0.292969 -0.265625 0.332031 -0.484375 L 0.484375 -1.394531 L 1.632812 -1.542969 L 2.03125 -0.671875 C 2.097656 -0.480469 2.039062 -0.289062 1.894531 -0.269531 L 1.839844 -0.261719 L 1.847656 -0.246094 L 2.703125 -0.359375 L 2.703125 -0.371094 L 2.671875 -0.367188 C 2.59375 -0.355469 2.421875 -0.546875 2.328125 -0.75 C 1.882812 -1.703125 1.441406 -2.65625 1.003906 -3.609375 L 0.972656 -3.605469 C 0.996094 -3.535156 0.902344 -3.433594 0.785156 -3.402344 L 0.800781 -3.359375 L 0.308594 -0.480469 C 0.269531 -0.257812 0.0820312 -0.0234375 -0.0703125 -0.00390625 L -0.125 0.00390625 Z M 0.484375 -1.421875 L 0.808594 -3.339844 L 1.617188 -1.574219 Z M 0.484375 -1.421875 "/></g></g></g><g fill="#000000" fill-opacity="1"><g transform="translate(36.064777, 54.457643)"><g><path d="M 0.417969 -0.109375 L 1.082031 -0.285156 C 2.089844 -0.550781 2.886719 -1.53125 2.648438 -2.4375 C 2.429688 -3.253906 1.417969 -3.851562 0.410156 -3.585938 L -0.4375 -3.359375 Z M 1.046875 -0.292969 C 0.785156 -0.222656 0.6875 -0.265625 0.671875 -0.324219 L -0.144531 -3.421875 L 0.34375 -3.550781 C 1.210938 -3.777344 2.113281 -3.164062 2.328125 -2.351562 C 2.5625 -1.457031 1.90625 -0.519531 1.046875 -0.292969 Z M 1.046875 -0.292969 "/></g></g></g><g fill="#000000" fill-opacity="1"><g transform="translate(39.560016, 53.528617)"><g><path d="M 1.625 -0.644531 C 2.382812 -0.964844 2.789062 -2.0625 2.449219 -2.867188 C 2.109375 -3.667969 1.054688 -4.144531 0.320312 -3.832031 C -0.398438 -3.527344 -0.773438 -2.445312 -0.429688 -1.644531 C -0.0898438 -0.839844 0.929688 -0.347656 1.625 -0.644531 Z M 1.621094 -0.664062 C 1.074219 -0.433594 0.207031 -0.980469 -0.128906 -1.769531 C -0.464844 -2.5625 -0.242188 -3.574219 0.324219 -3.8125 C 0.90625 -4.0625 1.8125 -3.53125 2.148438 -2.738281 C 2.484375 -1.949219 2.226562 -0.921875 1.621094 -0.664062 Z M 1.621094 -0.664062 "/></g></g></g><g fill="#000000" fill-opacity="1"><g transform="translate(43.036218, 52.012962)"><g><path d="M 0.375 -0.222656 L 0.632812 -0.375 L -0.195312 -1.777344 L 0.355469 -2.105469 C 0.496094 -1.988281 1.054688 -1.601562 1.582031 -1.253906 C 1.769531 -1.128906 1.917969 -1.148438 2.304688 -1.367188 C 2.148438 -1.292969 2.050781 -1.316406 1.882812 -1.425781 L 0.589844 -2.28125 C 0.882812 -2.5625 1.015625 -2.976562 0.824219 -3.296875 C 0.582031 -3.707031 -0.078125 -3.859375 -0.511719 -3.601562 L -1.335938 -3.117188 Z M -0.234375 -1.84375 L -1.046875 -3.222656 L -0.558594 -3.511719 C -0.230469 -3.703125 0.296875 -3.539062 0.507812 -3.183594 C 0.738281 -2.796875 0.621094 -2.347656 0.332031 -2.179688 Z M -0.234375 -1.84375 "/></g></g></g><g fill="#000000" fill-opacity="1"><g transform="translate(45.610661, 50.470484)"><g><path d="M 0.347656 -0.253906 L 1.8125 -1.359375 C 1.804688 -1.371094 1.675781 -1.628906 1.660156 -1.660156 L 1.628906 -1.636719 L 1.644531 -1.585938 C 1.679688 -1.441406 1.546875 -1.179688 1.367188 -1.042969 L 0.691406 -0.539062 C 0.601562 -0.472656 0.539062 -0.5 0.503906 -0.550781 L -0.445312 -1.820312 L 0.132812 -2.253906 C 0.269531 -2.355469 0.515625 -2.347656 0.632812 -2.246094 L 0.675781 -2.207031 L 0.703125 -2.230469 L 0.488281 -2.519531 L 0.492188 -2.523438 L 0.480469 -2.539062 L 0.476562 -2.535156 L 0.261719 -2.824219 L 0.230469 -2.800781 L 0.253906 -2.75 C 0.320312 -2.609375 0.257812 -2.371094 0.121094 -2.269531 L -0.460938 -1.835938 L -1.414062 -3.109375 L -0.625 -3.699219 C -0.488281 -3.804688 -0.226562 -3.808594 -0.0976562 -3.714844 L -0.046875 -3.683594 L -0.0195312 -3.707031 L -0.277344 -3.976562 L -0.285156 -3.980469 L -1.667969 -2.945312 Z M 0.347656 -0.253906 "/></g></g></g><g fill="#000000" fill-opacity="1"><g transform="translate(47.690723, 48.903748)"><g><path d="M 1.007812 -0.867188 C 1.355469 -1.1875 1.402344 -1.816406 1.101562 -2.144531 C 0.890625 -2.371094 0.292969 -2.472656 -0.199219 -2.3125 C -0.714844 -2.148438 -1.273438 -2.175781 -1.421875 -2.335938 C -1.660156 -2.597656 -1.691406 -3.042969 -1.476562 -3.238281 C -1.378906 -3.328125 -1.230469 -3.398438 -1.074219 -3.441406 C -0.886719 -3.488281 -0.554688 -3.46875 -0.398438 -3.394531 C -0.382812 -3.386719 -0.355469 -3.378906 -0.339844 -3.367188 L -0.296875 -3.40625 L -0.589844 -3.71875 L -0.605469 -3.707031 L -0.574219 -3.667969 C -0.542969 -3.628906 -0.628906 -3.578125 -0.742188 -3.566406 C -0.964844 -3.546875 -1.285156 -3.445312 -1.496094 -3.253906 C -1.792969 -2.980469 -1.804688 -2.402344 -1.515625 -2.089844 C -1.3125 -1.867188 -0.671875 -1.789062 -0.117188 -1.960938 C 0.339844 -2.105469 0.839844 -2.070312 0.984375 -1.914062 C 1.242188 -1.632812 1.242188 -1.125 0.988281 -0.890625 C 0.851562 -0.765625 0.609375 -0.679688 0.359375 -0.65625 C 0.164062 -0.644531 -0.148438 -0.699219 -0.300781 -0.769531 C -0.3125 -0.78125 -0.34375 -0.789062 -0.359375 -0.796875 L -0.398438 -0.761719 L -0.0078125 -0.332031 L 0.0078125 -0.347656 L -0.046875 -0.414062 C -0.105469 -0.484375 -0.0078125 -0.5625 0.148438 -0.570312 C 0.46875 -0.578125 0.816406 -0.691406 1.007812 -0.867188 Z M 1.007812 -0.867188 "/></g></g></g></svg>