<svg xmlns="http://www.w3.org/2000/svg" xmlns:xlink="http://www.w3.org/1999/xlink" width="200" zoomAndPan="magnify" viewBox="0 0 150 149.999998" height="200" preserveAspectRatio="xMidYMid meet" version="1.0"><defs><clipPath id="63835b7f86"><path d="M 43.472656 2.515625 L 134.175781 2.515625 L 134.175781 119.9375 L 43.472656 119.9375 Z M 43.472656 2.515625 " clip-rule="nonzero"/></clipPath><clipPath id="4317c5bbd6"><path d="M 50.222656 2.515625 L 127.421875 2.515625 C 131.152344 2.515625 134.171875 5.535156 134.171875 9.265625 L 134.171875 112.972656 C 134.171875 116.703125 131.152344 119.722656 127.421875 119.722656 L 50.222656 119.722656 C 46.492188 119.722656 43.472656 116.703125 43.472656 112.972656 L 43.472656 9.265625 C 43.472656 5.535156 46.492188 2.515625 50.222656 2.515625 " clip-rule="nonzero"/></clipPath><clipPath id="5639a90576"><path d="M 47.480469 6.355469 L 130.449219 6.355469 L 130.449219 116 L 47.480469 116 Z M 47.480469 6.355469 " clip-rule="nonzero"/></clipPath><clipPath id="70df45810f"><path d="M 54.230469 6.355469 L 123.414062 6.355469 C 127.140625 6.355469 130.164062 9.378906 130.164062 13.105469 L 130.164062 109.132812 C 130.164062 112.859375 127.140625 115.882812 123.414062 115.882812 L 54.230469 115.882812 C 50.503906 115.882812 47.480469 112.859375 47.480469 109.132812 L 47.480469 13.105469 C 47.480469 9.378906 50.503906 6.355469 54.230469 6.355469 " clip-rule="nonzero"/></clipPath><clipPath id="f8a058b630"><path d="M 31.445312 14.566406 L 122.148438 14.566406 L 122.148438 131.988281 L 31.445312 131.988281 Z M 31.445312 14.566406 " clip-rule="nonzero"/></clipPath><clipPath id="25d4dfc3e3"><path d="M 38.195312 14.566406 L 115.394531 14.566406 C 119.125 14.566406 122.144531 17.589844 122.144531 21.316406 L 122.144531 125.027344 C 122.144531 128.753906 119.125 131.777344 115.394531 131.777344 L 38.195312 131.777344 C 34.46875 131.777344 31.445312 128.753906 31.445312 125.027344 L 31.445312 21.316406 C 31.445312 17.589844 34.46875 14.566406 38.195312 14.566406 " clip-rule="nonzero"/></clipPath><clipPath id="fef1fbac55"><path d="M 35.453125 18.410156 L 118.421875 18.410156 L 118.421875 128 L 35.453125 128 Z M 35.453125 18.410156 " clip-rule="nonzero"/></clipPath><clipPath id="c51dfc10a3"><path d="M 42.203125 18.410156 L 111.386719 18.410156 C 115.117188 18.410156 118.136719 21.429688 118.136719 25.160156 L 118.136719 121.1875 C 118.136719 124.914062 115.117188 127.9375 111.386719 127.9375 L 42.203125 127.9375 C 38.476562 127.9375 35.453125 124.914062 35.453125 121.1875 L 35.453125 25.160156 C 35.453125 21.429688 38.476562 18.410156 42.203125 18.410156 " clip-rule="nonzero"/></clipPath><clipPath id="098475e672"><path d="M 15.828125 30.277344 L 106.53125 30.277344 L 106.53125 147.699219 L 15.828125 147.699219 Z M 15.828125 30.277344 " clip-rule="nonzero"/></clipPath><clipPath id="fe9376a85a"><path d="M 22.578125 30.277344 L 99.777344 30.277344 C 103.507812 30.277344 106.527344 33.296875 106.527344 37.027344 L 106.527344 140.734375 C 106.527344 144.464844 103.507812 147.484375 99.777344 147.484375 L 22.578125 147.484375 C 18.847656 147.484375 15.828125 144.464844 15.828125 140.734375 L 15.828125 37.027344 C 15.828125 33.296875 18.847656 30.277344 22.578125 30.277344 " clip-rule="nonzero"/></clipPath><clipPath id="6741a88f78"><path d="M 19.835938 34.117188 L 102.804688 34.117188 L 102.804688 143.804688 L 19.835938 143.804688 Z M 19.835938 34.117188 " clip-rule="nonzero"/></clipPath><clipPath id="bcd8fe462d"><path d="M 26.585938 34.117188 L 95.769531 34.117188 C 99.496094 34.117188 102.519531 37.140625 102.519531 40.867188 L 102.519531 136.894531 C 102.519531 140.621094 99.496094 143.644531 95.769531 143.644531 L 26.585938 143.644531 C 22.859375 143.644531 19.835938 140.621094 19.835938 136.894531 L 19.835938 40.867188 C 19.835938 37.140625 22.859375 34.117188 26.585938 34.117188 " clip-rule="nonzero"/></clipPath><clipPath id="07249423f5"><path d="M 31.175781 58.878906 L 91.175781 58.878906 L 91.175781 118.878906 L 31.175781 118.878906 Z M 31.175781 58.878906 " clip-rule="nonzero"/></clipPath></defs><g clip-path="url(#63835b7f86)"><g clip-path="url(#4317c5bbd6)"><path fill="#ffffff" d="M 43.472656 2.515625 L 134.175781 2.515625 L 134.175781 119.9375 L 43.472656 119.9375 Z M 43.472656 2.515625 " fill-opacity="1" fill-rule="nonzero"/></g></g><g clip-path="url(#5639a90576)"><g clip-path="url(#70df45810f)"><path fill="#000000" d="M 47.480469 6.355469 L 130.449219 6.355469 L 130.449219 116.042969 L 47.480469 116.042969 Z M 47.480469 6.355469 " fill-opacity="1" fill-rule="nonzero"/></g></g><g clip-path="url(#f8a058b630)"><g clip-path="url(#25d4dfc3e3)"><path fill="#ffffff" d="M 31.445312 14.566406 L 122.148438 14.566406 L 122.148438 131.988281 L 31.445312 131.988281 Z M 31.445312 14.566406 " fill-opacity="1" fill-rule="nonzero"/></g></g><g clip-path="url(#fef1fbac55)"><g clip-path="url(#c51dfc10a3)"><path fill="#000000" d="M 35.453125 18.410156 L 118.421875 18.410156 L 118.421875 128.097656 L 35.453125 128.097656 Z M 35.453125 18.410156 " fill-opacity="1" fill-rule="nonzero"/></g></g><g clip-path="url(#098475e672)"><g clip-path="url(#fe9376a85a)"><path fill="#ffffff" d="M 15.828125 30.277344 L 106.53125 30.277344 L 106.53125 147.699219 L 15.828125 147.699219 Z M 15.828125 30.277344 " fill-opacity="1" fill-rule="nonzero"/></g></g><g clip-path="url(#6741a88f78)"><g clip-path="url(#bcd8fe462d)"><path fill="#000000" d="M 19.835938 34.117188 L 102.804688 34.117188 L 102.804688 143.804688 L 19.835938 143.804688 Z M 19.835938 34.117188 " fill-opacity="1" fill-rule="nonzero"/></g></g><g clip-path="url(#07249423f5)"><path fill="#ffffff" d="M 85.59375 83.296875 L 66.761719 83.296875 L 66.761719 64.464844 C 66.761719 61.378906 64.261719 58.886719 61.175781 58.886719 C 58.09375 58.886719 55.59375 61.378906 55.59375 64.464844 L 55.59375 83.296875 L 36.761719 83.296875 C 33.675781 83.296875 31.175781 85.796875 31.175781 88.878906 C 31.175781 91.964844 33.675781 94.464844 36.761719 94.464844 L 55.59375 94.464844 L 55.59375 113.296875 C 55.59375 116.382812 58.09375 118.878906 61.175781 118.878906 C 64.261719 118.878906 66.761719 116.382812 66.761719 113.296875 L 66.761719 94.464844 L 85.59375 94.464844 C 88.675781 94.464844 91.175781 91.964844 91.175781 88.878906 C 91.175781 85.796875 88.675781 83.296875 85.59375 83.296875 " fill-opacity="1" fill-rule="nonzero"/></g></svg>