<svg xmlns="http://www.w3.org/2000/svg" xmlns:xlink="http://www.w3.org/1999/xlink" width="200" zoomAndPan="magnify" viewBox="0 0 150 149.999998" height="200" preserveAspectRatio="xMidYMid meet" version="1.0"><path fill="#000000" d="M 75 118.640625 C 50.929688 118.640625 31.359375 99.070312 31.359375 75 C 31.359375 50.929688 50.929688 31.359375 75 31.359375 Z M 75 28.417969 C 49.3125 28.417969 28.417969 49.3125 28.417969 75 C 28.417969 100.6875 49.3125 121.582031 75 121.582031 C 100.6875 121.582031 121.582031 100.6875 121.582031 75 C 121.582031 49.3125 100.6875 28.417969 75 28.417969 " fill-opacity="1" fill-rule="nonzero"/><path fill="#000000" d="M 75 24.773438 C 75.808594 24.773438 76.464844 24.117188 76.464844 23.308594 L 76.464844 1.464844 C 76.464844 0.65625 75.808594 0 75 0 C 74.191406 0 73.535156 0.65625 73.535156 1.464844 L 73.535156 23.308594 C 73.535156 24.117188 74.191406 24.773438 75 24.773438 " fill-opacity="1" fill-rule="nonzero"/><path fill="#000000" d="M 37.40625 39.492188 C 37.699219 39.773438 38.074219 39.914062 38.449219 39.914062 C 38.824219 39.914062 39.199219 39.773438 39.492188 39.492188 C 40.066406 38.917969 40.066406 37.980469 39.492188 37.40625 L 24.046875 21.972656 C 23.472656 21.398438 22.535156 21.398438 21.972656 21.972656 C 21.398438 22.546875 21.398438 23.472656 21.972656 24.046875 L 37.40625 39.492188 " fill-opacity="1" fill-rule="nonzero"/><path fill="#000000" d="M 24.773438 75 C 24.773438 74.191406 24.117188 73.535156 23.308594 73.535156 L 1.464844 73.535156 C 0.65625 73.535156 0 74.191406 0 75 C 0 75.808594 0.65625 76.464844 1.464844 76.464844 L 23.308594 76.464844 C 24.117188 76.464844 24.773438 75.808594 24.773438 75 " fill-opacity="1" fill-rule="nonzero"/><path fill="#000000" d="M 37.40625 110.519531 L 21.972656 125.953125 C 21.398438 126.527344 21.398438 127.464844 21.972656 128.027344 C 22.253906 128.320312 22.628906 128.460938 23.003906 128.460938 C 23.378906 128.460938 23.753906 128.320312 24.046875 128.027344 L 39.492188 112.59375 C 40.066406 112.019531 40.066406 111.09375 39.492188 110.519531 C 38.917969 109.945312 37.980469 109.945312 37.40625 110.519531 " fill-opacity="1" fill-rule="nonzero"/><path fill="#000000" d="M 75 125.226562 C 74.191406 125.226562 73.535156 125.882812 73.535156 126.691406 L 73.535156 148.535156 C 73.535156 149.34375 74.191406 150 75 150 C 75.808594 150 76.464844 149.34375 76.464844 148.535156 L 76.464844 126.691406 C 76.464844 125.882812 75.808594 125.226562 75 125.226562 " fill-opacity="1" fill-rule="nonzero"/><path fill="#000000" d="M 112.59375 110.519531 C 112.019531 109.945312 111.09375 109.945312 110.507812 110.519531 C 109.945312 111.09375 109.945312 112.019531 110.507812 112.59375 L 125.953125 128.027344 C 126.246094 128.320312 126.621094 128.460938 126.996094 128.460938 C 127.371094 128.460938 127.746094 128.320312 128.027344 128.027344 C 128.601562 127.464844 128.601562 126.527344 128.027344 125.953125 L 112.59375 110.519531 " fill-opacity="1" fill-rule="nonzero"/><path fill="#000000" d="M 148.535156 73.535156 L 126.691406 73.535156 C 125.882812 73.535156 125.226562 74.191406 125.226562 75 C 125.226562 75.808594 125.882812 76.464844 126.691406 76.464844 L 148.535156 76.464844 C 149.34375 76.464844 150 75.808594 150 75 C 150 74.191406 149.34375 73.535156 148.535156 73.535156 " fill-opacity="1" fill-rule="nonzero"/><path fill="#000000" d="M 111.550781 39.914062 C 111.925781 39.914062 112.300781 39.773438 112.59375 39.492188 L 128.027344 24.046875 C 128.601562 23.472656 128.601562 22.546875 128.027344 21.972656 C 127.453125 21.398438 126.527344 21.398438 125.953125 21.972656 L 110.507812 37.40625 C 109.945312 37.980469 109.945312 38.917969 110.507812 39.492188 C 110.800781 39.773438 111.175781 39.914062 111.550781 39.914062 " fill-opacity="1" fill-rule="nonzero"/></svg>